<?xml version="1.0" encoding="iso-8859-1"?>
<!-- Generator: Adobe Illustrator 16.0.0, SVG Export Plug-In . SVG Version: 6.00 Build 0)  -->
<!DOCTYPE svg PUBLIC "-//W3C//DTD SVG 1.1//EN" "http://www.w3.org/Graphics/SVG/1.1/DTD/svg11.dtd">
<svg version="1.1" id="Layer_1" xmlns="http://www.w3.org/2000/svg" xmlns:xlink="http://www.w3.org/1999/xlink" x="0px" y="0px"
	 width="30.68px" height="30.335px" viewBox="0 0 30.68 30.335" style="enable-background:new 0 0 30.68 30.335;"
	 xml:space="preserve">
<g>
	<polygon points="24.563,2.141 28.538,6.192 27.229,7.477 25.341,5.554 24.562,6.317 26.45,8.242 25.608,9.068 24.383,7.818 
		23.604,8.583 24.829,9.833 23.672,10.967 21.784,9.044 21.006,9.808 22.895,11.732 22.051,12.558 20.827,11.308 20.047,12.072 
		22.363,14.374 30.68,6.212 24.584,0 16.171,8.255 17.241,9.325 	"/>
	<polygon points="12.756,18.83 14.182,20.281 13.113,21.329 11.025,19.201 10.247,19.966 12.334,22.093 11.492,22.919 
		10.068,21.468 9.289,22.232 10.713,23.684 9.557,24.819 7.47,22.692 6.69,23.455 8.778,25.583 7.935,26.41 6.51,24.958 
		5.733,25.722 7.157,27.173 6.116,28.195 2.141,24.143 11.006,15.443 9.935,14.374 0,24.122 6.097,30.335 16.036,20.621 
		13.535,18.065 	"/>
	<path d="M12.365,5.892l0.009-0.008L8.285,1.796L3.479,6.602l4.089,4.089l0.006-0.007l12.669,12.67l7.789,3.421l-2.919-8.099
		L12.365,5.892z M6.784,8.116L5.271,6.603l3.016-3.016L9.8,5.099L6.784,8.116z M25.016,24.771l-4.368-1.906l-0.576-0.578
		l2.579,0.154l-0.435-1.793l1.89,0.336l0.02-2.444l0.416,0.417l1.664,4.625L25.016,24.771z"/>
</g>
<g>
</g>
<g>
</g>
<g>
</g>
<g>
</g>
<g>
</g>
<g>
</g>
<g>
</g>
<g>
</g>
<g>
</g>
<g>
</g>
<g>
</g>
<g>
</g>
<g>
</g>
<g>
</g>
<g>
</g>
</svg>
